<?xml version="1.0" standalone="no"?>
 <!DOCTYPE svg PUBLIC "-//W3C//DTD SVG 1.1//EN" 
 "http://www.w3.org/Graphics/SVG/1.1/DTD/svg11.dtd"> 
<svg
  xmlns:svg="http://www.w3.org/2000/svg"
  xmlns="http://www.w3.org/2000/svg"
  xmlns:xlink="http://www.w3.org/1999/xlink"
  version="1.1"
  width="29.700220cm" height="21.000720cm" viewBox="0 0 297002200 210007200">
<title>SVG Picture created as macro_pad_rpi_pico-Edge_Cuts.svg date 2022/08/14 14:40:59 </title>
  <desc>Picture generated by PCBNEW </desc>
<g style="fill:#000000; fill-opacity:1.000000;stroke:#000000; stroke-opacity:1.000000;
stroke-linecap:round; stroke-linejoin:round;"
 transform="translate(0 0) scale(1 1)">
</g>
<g style="fill:#000000; fill-opacity:0.0; 
stroke:#000000; stroke-width:0.000000; stroke-opacity:1; 
stroke-linecap:round; stroke-linejoin:round;">
</g>
<g style="fill:#000000; fill-opacity:0.0; 
stroke:#000000; stroke-width:200000.000000; stroke-opacity:1; 
stroke-linecap:round; stroke-linejoin:round;">
<path d="M199000000 104000000
L198000000 104000000
" />
<path d="M194000000.000000 65999999.000000 A3000001.000000 3000001.000000 0.0 0 0 191000000.000000 62999999.000000" />
<path d="M203000000.000000 108000000.000000 A4000000.000000 4000000.000000 0.0 0 0 199000000.000000 104000000.000000" />
<path d="M194000000 100000000
L194000000 66000000
" />
<path d="M94000000 62999999
L191000000 62999999
" />
<path d="M194000000.000000 100000000.000000 A4000000.000000 4000000.000000 0.0 0 0 198000000.000000 104000000.000000" />
<path d="M200000000 145000000
L94000000 145000000
" />
<path d="M203000000 108000000
L203000000 142000000
" />
<path d="M200000000.000000 145000000.000000 A3000001.000000 3000001.000000 0.0 0 0 203000000.000000 142000000.000000" />
<path d="M91000000.000000 142000000.000000 A3000001.000000 3000001.000000 0.0 0 0 94000000.000000 145000000.000000" />
<path d="M94000000.000000 62999999.000000 A3000001.000000 3000001.000000 0.0 0 0 91000000.000000 65999999.000000" />
<path d="M91000000 142000000
L91000000 66000000
" />
<g >
</g>
<g >
</g>
<g >
</g>
<g >
</g>
<g >
</g>
<g >
</g>
<g >
</g>
<g >
</g>
<g >
</g>
<g >
</g>
<g >
</g>
<g >
</g>
<g >
</g>
<g >
</g>
<g >
</g>
<g >
</g>
<g >
</g>
<g >
</g>
<g >
</g>
<g >
</g>
<g >
</g>
<g >
</g>
<g >
</g>
<g >
</g>
<g >
</g>
<g >
</g>
<g >
</g>
<g >
</g>
<g >
</g>
<g >
</g>
</g> 
</svg>
