M48
INCH,TZ
T1C0.0157
T2C0.0236
T3C0.0315
T4C0.0320
T5C0.0394
T6C0.0402
T7C0.0512
T8C0.0591
T9C0.0984
%
G90
G05
T1
X42528Y-27441
X42530Y-27963
X42862Y-27441
X42864Y-27963
X43197Y-27441
X43199Y-27963
X43531Y-27441
X43533Y-27963
X43866Y-27441
X43868Y-27963
X44201Y-27441
X44203Y-27963
X44535Y-27441
X44537Y-27963
X44872Y-27441
X44872Y-27963
T3
X50120Y-36855
X52089Y-36855
X52242Y-38976
X54057Y-37128
X54210Y-38976
X56026Y-37128
X56179Y-39250
X57994Y-37128
X58147Y-39250
X59963Y-37128
X60116Y-39250
X61931Y-37128
X62084Y-39250
X63900Y-37128
X64053Y-39250
X65868Y-37128
X66021Y-39250
X67837Y-37128
X67990Y-39250
X69958Y-39250
T4
X69843Y-48197
X69843Y-49197
X69843Y-50197
X69843Y-51197
X69843Y-52197
X71925Y-43701
X72925Y-43701
X73925Y-43701
X74925Y-43701
T5
X39764Y-39567
X39764Y-45276
X39764Y-48567
X39764Y-54276
X40748Y-39567
X40748Y-48567
X41732Y-39567
X41732Y-45276
X41732Y-48567
X41732Y-54276
X50344Y-30309
X50344Y-31109
X54921Y-31693
T6
X50343Y-27209
X50343Y-34209
X51343Y-27209
X51343Y-34209
X52343Y-27209
X52343Y-34209
X53343Y-27209
X53343Y-34209
X54343Y-27209
X54343Y-34209
X55343Y-27209
X55343Y-34209
X56343Y-27209
X56343Y-34209
X57343Y-27209
X57343Y-34209
X58343Y-27209
X58343Y-34209
X59343Y-27209
X59343Y-34209
X60343Y-27209
X60343Y-34209
X61343Y-27209
X61343Y-34209
X62343Y-27209
X62343Y-34209
X63343Y-27209
X63343Y-34209
X64343Y-27209
X64343Y-34209
X65343Y-27209
X65343Y-34209
X66343Y-27209
X66343Y-34209
X67343Y-27209
X67343Y-34209
X68343Y-27209
X68343Y-34209
X69252Y-29709
X69252Y-30709
X69252Y-31709
X69343Y-27209
X69343Y-34209
T7
X47638Y-26280
X47638Y-28839
T8
X47555Y-42878
X47555Y-50878
X50055Y-41878
X50055Y-49878
X55555Y-42878
X55555Y-50878
X58055Y-41878
X58055Y-49878
X63555Y-42878
X63555Y-50878
X66055Y-41878
X66055Y-49878
T9
X37008Y-25984
X37008Y-55906
X75197Y-25984
X78740Y-55906
T2
G00X41998Y-26404
M15
G01X41998Y-26089
M16
G05
G00X41998Y-27872
M15
G01X41998Y-27281
M16
G05
G00X45404Y-26404
M15
G01X45404Y-26089
M16
G05
G00X45404Y-27872
M15
G01X45404Y-27281
M16
G05
T8
G00X38543Y-42264
M15
G01X38543Y-42776
M16
G05
G00X38543Y-51264
M15
G01X38543Y-51776
M16
G05
G00X42953Y-42264
M15
G01X42953Y-42776
M16
G05
G00X42953Y-51264
M15
G01X42953Y-51776
M16
G05
T0
M30
