G04 #@! TF.GenerationSoftware,KiCad,Pcbnew,(6.0.1-0)*
G04 #@! TF.CreationDate,2022-09-23T00:34:52-04:00*
G04 #@! TF.ProjectId,macro_pad_rpi_pico,6d616372-6f5f-4706-9164-5f7270695f70,rev?*
G04 #@! TF.SameCoordinates,Original*
G04 #@! TF.FileFunction,Soldermask,Bot*
G04 #@! TF.FilePolarity,Negative*
%FSLAX46Y46*%
G04 Gerber Fmt 4.6, Leading zero omitted, Abs format (unit mm)*
G04 Created by KiCad (PCBNEW (6.0.1-0)) date 2022-09-23 00:34:52*
%MOMM*%
%LPD*%
G01*
G04 APERTURE LIST*
G04 Aperture macros list*
%AMRoundRect*
0 Rectangle with rounded corners*
0 $1 Rounding radius*
0 $2 $3 $4 $5 $6 $7 $8 $9 X,Y pos of 4 corners*
0 Add a 4 corners polygon primitive as box body*
4,1,4,$2,$3,$4,$5,$6,$7,$8,$9,$2,$3,0*
0 Add four circle primitives for the rounded corners*
1,1,$1+$1,$2,$3*
1,1,$1+$1,$4,$5*
1,1,$1+$1,$6,$7*
1,1,$1+$1,$8,$9*
0 Add four rect primitives between the rounded corners*
20,1,$1+$1,$2,$3,$4,$5,0*
20,1,$1+$1,$4,$5,$6,$7,0*
20,1,$1+$1,$6,$7,$8,$9,0*
20,1,$1+$1,$8,$9,$2,$3,0*%
%AMHorizOval*
0 Thick line with rounded ends*
0 $1 width*
0 $2 $3 position (X,Y) of the first rounded end (center of the circle)*
0 $4 $5 position (X,Y) of the second rounded end (center of the circle)*
0 Add line between two ends*
20,1,$1,$2,$3,$4,$5,0*
0 Add two circle primitives to create the rounded ends*
1,1,$1,$2,$3*
1,1,$1,$4,$5*%
%AMRotRect*
0 Rectangle, with rotation*
0 The origin of the aperture is its center*
0 $1 length*
0 $2 width*
0 $3 Rotation angle, in degrees counterclockwise*
0 Add horizontal line*
21,1,$1,$2,0,0,$3*%
G04 Aperture macros list end*
%ADD10C,1.600000*%
%ADD11HorizOval,1.600000X0.000000X0.000000X0.000000X0.000000X0*%
%ADD12C,1.397000*%
%ADD13C,5.000000*%
%ADD14RotRect,1.600000X1.600000X315.000000*%
%ADD15HorizOval,1.600000X0.000000X0.000000X0.000000X0.000000X0*%
%ADD16C,1.750000*%
%ADD17C,4.000000*%
%ADD18C,2.500000*%
%ADD19O,1.700000X1.700000*%
%ADD20R,1.700000X1.700000*%
%ADD21RoundRect,0.437500X0.437500X-0.437500X0.437500X0.437500X-0.437500X0.437500X-0.437500X-0.437500X0*%
%ADD22C,2.000000*%
%ADD23O,0.650000X1.000000*%
%ADD24O,0.900000X1.700000*%
%ADD25O,0.900000X2.400000*%
%ADD26R,2.000000X3.200000*%
G04 APERTURE END LIST*
D10*
G04 #@! TO.C,R1*
X137694100Y-99000000D03*
D11*
X132305946Y-93611846D03*
G04 #@! TD*
D12*
G04 #@! TO.C,J2*
X182690000Y-111000000D03*
X185230000Y-111000000D03*
X187770000Y-111000000D03*
X190310000Y-111000000D03*
G04 #@! TD*
D13*
G04 #@! TO.C,REF3*
X200000000Y-142000000D03*
G04 #@! TD*
D14*
G04 #@! TO.C,D1*
X137305900Y-94305900D03*
D15*
X142694054Y-99694054D03*
G04 #@! TD*
D16*
G04 #@! TO.C,SW1*
X129680000Y-111450000D03*
D17*
X124600000Y-111450000D03*
D16*
X119520000Y-111450000D03*
D18*
X120790000Y-108910000D03*
X127140000Y-106370000D03*
G04 #@! TD*
D17*
G04 #@! TO.C,SW4*
X144920000Y-131770000D03*
D16*
X150000000Y-131770000D03*
X139840000Y-131770000D03*
D18*
X141110000Y-129230000D03*
X147460000Y-126690000D03*
G04 #@! TD*
D14*
G04 #@! TO.C,D5*
X157305900Y-94305900D03*
D15*
X162694054Y-99694054D03*
G04 #@! TD*
D13*
G04 #@! TO.C,REF1*
X94000000Y-66000000D03*
G04 #@! TD*
D14*
G04 #@! TO.C,D3*
X147305900Y-94305900D03*
D15*
X152694054Y-99694054D03*
G04 #@! TD*
D14*
G04 #@! TO.C,D4*
X152305900Y-94305900D03*
D15*
X157694054Y-99694054D03*
G04 #@! TD*
D16*
G04 #@! TO.C,SW2*
X129680000Y-131770000D03*
X119520000Y-131770000D03*
D17*
X124600000Y-131770000D03*
D18*
X120790000Y-129230000D03*
X127140000Y-126690000D03*
G04 #@! TD*
D19*
G04 #@! TO.C,RPI1*
X127870000Y-86890000D03*
X130410000Y-86890000D03*
D20*
X132950000Y-86890000D03*
D19*
X135490000Y-86890000D03*
X138030000Y-86890000D03*
X140570000Y-86890000D03*
X143110000Y-86890000D03*
D20*
X145650000Y-86890000D03*
D19*
X148190000Y-86890000D03*
X150730000Y-86890000D03*
X153270000Y-86890000D03*
X155810000Y-86890000D03*
D20*
X158350000Y-86890000D03*
D19*
X160890000Y-86890000D03*
X163430000Y-86890000D03*
X165970000Y-86890000D03*
X168510000Y-86890000D03*
D20*
X171050000Y-86890000D03*
D19*
X173590000Y-86890000D03*
X176130000Y-86890000D03*
X176130000Y-69110000D03*
X173590000Y-69110000D03*
D20*
X171050000Y-69110000D03*
D19*
X168510000Y-69110000D03*
X165970000Y-69110000D03*
X163430000Y-69110000D03*
X160890000Y-69110000D03*
D20*
X158350000Y-69110000D03*
D19*
X155810000Y-69110000D03*
X153270000Y-69110000D03*
X150730000Y-69110000D03*
X148190000Y-69110000D03*
D20*
X145650000Y-69110000D03*
D19*
X143110000Y-69110000D03*
X140570000Y-69110000D03*
X138030000Y-69110000D03*
X135490000Y-69110000D03*
D20*
X132950000Y-69110000D03*
D19*
X130410000Y-69110000D03*
X127870000Y-69110000D03*
X175900000Y-80540000D03*
D20*
X175900000Y-78000000D03*
D19*
X175900000Y-75460000D03*
D21*
X127875000Y-76984000D03*
X127875000Y-79016000D03*
X139500000Y-80500000D03*
G04 #@! TD*
D14*
G04 #@! TO.C,D7*
X167305900Y-94305900D03*
D15*
X172694054Y-99694054D03*
G04 #@! TD*
D22*
G04 #@! TO.C,SW-RST1*
X121000000Y-66750000D03*
X121000000Y-73250000D03*
G04 #@! TD*
D23*
G04 #@! TO.C,J1*
X113975000Y-71025000D03*
X113125000Y-71025000D03*
X112275000Y-71025000D03*
X111425000Y-71025000D03*
X110575000Y-71025000D03*
X109725000Y-71025000D03*
X108875000Y-71025000D03*
X108025000Y-71025000D03*
X108020000Y-69700000D03*
X108870000Y-69700000D03*
X109720000Y-69700000D03*
X110570000Y-69700000D03*
X111420000Y-69700000D03*
X112270000Y-69700000D03*
X113120000Y-69700000D03*
X113975000Y-69700000D03*
D24*
X115325000Y-66665000D03*
D25*
X106675000Y-70045000D03*
X115325000Y-70045000D03*
D24*
X106675000Y-66665000D03*
G04 #@! TD*
D14*
G04 #@! TO.C,D2*
X142305900Y-94305900D03*
D15*
X147694054Y-99694054D03*
G04 #@! TD*
D22*
G04 #@! TO.C,Rotary_encoder2*
X106000000Y-123360000D03*
X101000000Y-123360000D03*
X103500000Y-123360000D03*
D26*
X109100000Y-130860000D03*
X97900000Y-130860000D03*
D22*
X101000000Y-137860000D03*
X106000000Y-137860000D03*
G04 #@! TD*
D10*
G04 #@! TO.C,R2*
X132694100Y-99000000D03*
D11*
X127305946Y-93611846D03*
G04 #@! TD*
D16*
G04 #@! TO.C,SW3*
X150000000Y-111450000D03*
D17*
X144920000Y-111450000D03*
D16*
X139840000Y-111450000D03*
D18*
X141110000Y-108910000D03*
X147460000Y-106370000D03*
G04 #@! TD*
D13*
G04 #@! TO.C,REF4*
X94000000Y-142000000D03*
G04 #@! TD*
D16*
G04 #@! TO.C,SW5*
X160160000Y-111450000D03*
X170320000Y-111450000D03*
D17*
X165240000Y-111450000D03*
D18*
X161430000Y-108910000D03*
X167780000Y-106370000D03*
G04 #@! TD*
D13*
G04 #@! TO.C,REF2*
X191000000Y-66000000D03*
G04 #@! TD*
D12*
G04 #@! TO.C,J3*
X177400000Y-132580000D03*
X177400000Y-130040000D03*
X177400000Y-127500000D03*
X177400000Y-124960000D03*
X177400000Y-122420000D03*
G04 #@! TD*
D14*
G04 #@! TO.C,D6*
X162305900Y-94305900D03*
D15*
X167694054Y-99694054D03*
G04 #@! TD*
D16*
G04 #@! TO.C,SW6*
X170320000Y-131770000D03*
X160160000Y-131770000D03*
D17*
X165240000Y-131770000D03*
D18*
X161430000Y-129230000D03*
X167780000Y-126690000D03*
G04 #@! TD*
D14*
G04 #@! TO.C,D8*
X172305900Y-94305900D03*
D15*
X177694054Y-99694054D03*
G04 #@! TD*
D22*
G04 #@! TO.C,Rotary_encoder1*
X106000000Y-100500000D03*
X101000000Y-100500000D03*
X103500000Y-100500000D03*
D26*
X109100000Y-108000000D03*
X97900000Y-108000000D03*
D22*
X101000000Y-115000000D03*
X106000000Y-115000000D03*
G04 #@! TD*
M02*
